<svg width="281" height="268" viewBox="0 0 281 268" fill="none" xmlns="http://www.w3.org/2000/svg">
<path d="M58.9342 114.732L63.8349 267.284H49.4365L54.3373 114.732H58.9342Z" fill="#3D8137"/>
<path opacity="0.5" d="M58.9342 114.732L63.8349 267.284H49.4365L54.3373 114.732H58.9342Z" fill="white"/>
<path d="M59.0469 118.305L54.2056 118.802L54.3311 114.726H58.9346L59.0469 118.305Z" fill="#3D8137"/>
<path d="M62.2303 217.628H51.0352L51.2135 212.008H62.0519L62.2303 217.628Z" fill="#3D8137"/>
<path d="M61.9724 209.339H51.2925L51.3849 206.529H61.8799L61.9724 209.339Z" fill="#3D8137"/>
<path opacity="0.5" d="M56.6226 267.284V114.732H58.9342L63.835 267.284H56.6226Z" fill="white"/>
<path d="M43.7368 112.858L44.9719 117.329H61.0545V108.381H44.9719L44.3775 110.526L43.7368 112.858Z" fill="#3D8137"/>
<path opacity="0.3" d="M43.7368 112.858L44.9719 117.329H61.0545V108.381H44.9719L44.3775 110.526L43.7368 112.858Z" fill="white"/>
<path opacity="0.5" d="M43.7368 112.858H61.0545V110.526H44.3775L43.7368 112.858Z" fill="white"/>
<path d="M64.357 109.479V40.3457L62.7587 40.8496L60.3413 109.479H64.357Z" fill="#3D8137"/>
<path opacity="0.5" d="M64.357 109.479V40.3457L62.7587 40.8496L60.3413 109.479H64.357Z" fill="white"/>
<path d="M64.3569 101.675V40.3457L65.6184 41.3794L68.8812 99.7887L64.3569 101.675Z" fill="#3D8137"/>
<path d="M66.7216 61.0903H62.0454L62.1181 59.0229H66.6093L66.7216 61.0903Z" fill="#3D8137"/>
<path d="M58.0296 112.464L0 147.028L1.22188 148.21L60.044 116.056L58.0296 112.464Z" fill="#3D8137"/>
<path opacity="0.5" d="M58.0296 112.464L0 147.028L1.22188 148.21L60.044 116.056L58.0296 112.464Z" fill="white"/>
<path d="M51.4776 116.367L0 147.028L0.237772 145.387L47.6337 113.272L51.4776 116.367Z" fill="#3D8137"/>
<path d="M16.2345 134.546L18.5726 138.726L16.7959 139.695L14.5503 135.683L16.2345 134.546Z" fill="#3D8137"/>
<path d="M63.6963 116.625L121.726 151.195L122.109 149.515L65.7107 113.033L63.6963 116.625Z" fill="#3D8137"/>
<path opacity="0.5" d="M63.6963 116.625L121.726 151.195L122.109 149.515L65.7107 113.033L63.6963 116.625Z" fill="white"/>
<path d="M70.2484 120.527L121.726 151.195L120.227 151.802L69.5747 125.515L70.2484 120.527Z" fill="#3D8137"/>
<path d="M103.134 142.932L105.472 138.752L107.176 139.857L104.93 143.862L103.134 142.932Z" fill="#3D8137"/>
<path d="M61.6162 117.336C64.144 117.336 66.1933 115.331 66.1933 112.858C66.1933 110.386 64.144 108.381 61.6162 108.381C59.0883 108.381 57.0391 110.386 57.0391 112.858C57.0391 115.331 59.0883 117.336 61.6162 117.336Z" fill="#3D8137"/>
<path d="M58.168 112.852C58.168 113.854 58.5751 114.815 59.2997 115.524C60.0243 116.233 61.007 116.631 62.0318 116.631C64.1651 116.631 68.6365 113.924 68.6365 112.852C68.6365 111.779 64.1717 109.066 62.0318 109.066C61.5238 109.066 61.0208 109.164 60.5516 109.354C60.0824 109.545 59.6562 109.824 59.2973 110.175C58.9384 110.527 58.654 110.944 58.4602 111.403C58.2664 111.863 58.1671 112.355 58.168 112.852Z" fill="#3D8137"/>
<path opacity="0.5" d="M58.168 112.852C58.168 113.854 58.5751 114.815 59.2997 115.524C60.0243 116.233 61.007 116.631 62.0318 116.631C64.1651 116.631 68.6365 113.924 68.6365 112.852C68.6365 111.779 64.1717 109.066 62.0318 109.066C61.5238 109.066 61.0208 109.164 60.5516 109.354C60.0824 109.545 59.6562 109.824 59.2973 110.175C58.9384 110.527 58.654 110.944 58.4602 111.403C58.2664 111.863 58.1671 112.355 58.168 112.852Z" fill="white"/>
<path d="M53.8355 119.577C52.5104 118.021 51.6753 116.123 51.4314 114.112C51.3642 113.611 51.3399 113.105 51.3587 112.6L51.3983 111.844C51.3983 111.592 51.4644 111.347 51.4974 111.095C51.5789 110.597 51.6937 110.105 51.8409 109.622C51.9991 109.14 52.1911 108.669 52.4155 108.213C52.8536 107.297 53.4328 106.451 54.1327 105.707C54.8164 104.95 55.611 104.297 56.4906 103.768C57.3628 103.228 58.3106 102.815 59.3042 102.541C60.2978 102.284 61.3213 102.153 62.3491 102.153C60.2935 102.196 58.2886 102.785 56.5501 103.859C54.8285 104.939 53.4546 106.473 52.5872 108.284C52.3657 108.733 52.1738 109.195 52.0126 109.667C51.8594 110.142 51.7424 110.628 51.6625 111.12C51.6625 111.366 51.5767 111.611 51.5502 111.857L51.5106 112.606C51.4853 113.104 51.503 113.604 51.5635 114.099C51.7903 116.095 52.5766 117.991 53.8355 119.577Z" fill="#C7C7C7"/>
<path d="M73.2867 112.852C73.2916 113.871 73.156 114.885 72.8839 115.869C72.4442 117.348 71.6864 118.717 70.6611 119.886C69.6359 121.055 68.367 121.996 66.9396 122.646C65.9863 123.072 64.9735 123.357 63.9344 123.492C62.3793 123.718 60.7924 123.609 59.2851 123.172C57.7778 122.734 56.3867 121.979 55.2095 120.96C56.8131 122.266 58.7571 123.11 60.8235 123.395C61.8503 123.527 62.8909 123.516 63.9146 123.363C64.9389 123.218 65.9359 122.926 66.8735 122.497C68.7613 121.663 70.3655 120.318 71.4969 118.621C72.632 116.899 73.252 114.901 73.2867 112.852Z" fill="#C7C7C7"/>
<path d="M64.4097 102.347C66.0429 102.598 67.589 103.234 68.9141 104.201C69.5759 104.681 70.1768 105.236 70.704 105.855C71.2057 106.491 71.6478 107.17 72.025 107.884C71.5931 107.208 71.1165 106.561 70.5983 105.946C70.063 105.345 69.4604 104.806 68.8018 104.337C67.4953 103.382 65.9994 102.704 64.4097 102.347Z" fill="#C7C7C7"/>
<path d="M76.0012 118.22C75.002 120.694 73.3222 122.848 71.148 124.444C68.9738 126.041 66.3901 127.017 63.6833 127.265C60.9747 127.502 58.2521 126.998 55.8193 125.809C53.3864 124.62 51.3391 122.794 49.9058 120.533C51.3801 122.744 53.4326 124.529 55.8501 125.702C58.2775 126.858 60.9819 127.343 63.6709 127.105C66.3598 126.867 68.9312 125.915 71.1071 124.351C73.2688 122.772 74.9587 120.655 76.0012 118.22Z" fill="#C7C7C7"/>
<path d="M71.7014 101.753C73.4149 103.068 74.7908 104.756 75.7196 106.683C76.6484 108.61 77.1044 110.722 77.0513 112.852C76.9979 110.738 76.494 108.658 75.5716 106.746C74.6492 104.834 73.3288 103.131 71.6948 101.746L71.7014 101.753Z" fill="#C7C7C7"/>
<path d="M48.1752 116.728C47.5401 114.594 47.4292 112.342 47.8515 110.158C48.266 107.968 49.1987 105.904 50.5749 104.131C51.9512 102.357 53.7329 100.923 55.7773 99.9439C56.7948 99.4527 57.8677 99.0797 58.974 98.8327C60.079 98.6025 61.206 98.4877 62.3358 98.4903C60.0767 98.5304 57.8548 99.0599 55.8301 100.041C53.8302 101.043 52.0868 102.472 50.7295 104.224C49.3723 105.976 48.436 108.004 47.9902 110.158C47.5497 112.334 47.6129 114.579 48.1752 116.728Z" fill="#C7C7C7"/>
<path d="M54.1196 103.685C55.629 102.367 57.4446 101.431 59.4084 100.957C61.3723 100.483 63.4248 100.485 65.3874 100.965C67.3588 101.437 69.1828 102.372 70.7015 103.689C72.2202 105.007 73.3879 106.666 74.1034 108.524C74.819 110.382 75.0608 112.382 74.808 114.352C74.5552 116.322 73.8154 118.202 72.6526 119.829C71.4982 121.454 69.957 122.779 68.1619 123.691C66.3668 124.603 64.3718 125.073 62.3492 125.062C64.3607 125.044 66.3383 124.554 68.1153 123.632C69.8924 122.71 71.4168 121.384 72.5602 119.765C73.6954 118.147 74.4145 116.286 74.656 114.338C74.8976 112.391 74.6546 110.415 73.9477 108.579C73.2408 106.743 72.0908 105.101 70.5958 103.794C69.1008 102.486 67.3049 101.551 65.361 101.068C63.41 100.591 61.3704 100.58 59.4141 101.035C57.4578 101.491 55.642 102.399 54.1196 103.685Z" fill="#C7C7C7"/>
<path d="M57.9571 124.28C57.1762 123.982 56.419 123.628 55.6916 123.221C54.9799 122.787 54.3159 122.283 53.7102 121.716C52.4808 120.583 51.499 119.218 50.8239 117.704C50.1607 116.182 49.8236 114.544 49.8332 112.89C49.8287 111.242 50.1798 109.61 50.8636 108.103C50.2371 109.621 49.9245 111.245 49.9438 112.882C49.963 114.519 50.3138 116.136 50.9758 117.639C51.6255 119.144 52.5804 120.504 53.7829 121.638C54.992 122.768 56.4082 123.664 57.9571 124.28Z" fill="#C7C7C7"/>
<path d="M232.231 114.732L237.131 267.284H222.733L227.634 114.732H232.231Z" fill="#3D8137"/>
<path opacity="0.5" d="M232.231 114.732L237.131 267.284H222.733L227.634 114.732H232.231Z" fill="white"/>
<path d="M232.369 118.996L227.303 124.875L227.627 114.726H232.23L232.369 118.996Z" fill="#3D8137"/>
<path d="M235.526 217.628H224.331L224.509 212.008H235.348L235.526 217.628Z" fill="#3D8137"/>
<path d="M235.269 209.339H224.589L224.681 206.529H235.176L235.269 209.339Z" fill="#3D8137"/>
<path opacity="0.5" d="M232.231 114.732L237.131 267.284H229.833L229.932 114.732H232.231Z" fill="white"/>
<path d="M217.033 112.858L218.268 117.329H234.351V108.381H218.268L217.674 110.526L217.033 112.858Z" fill="#3D8137"/>
<path opacity="0.3" d="M217.033 112.858L218.268 117.329H234.351V108.381H218.268L217.674 110.526L217.033 112.858Z" fill="white"/>
<path opacity="0.5" d="M217.033 112.858H234.351V110.526H217.674L217.033 112.858Z" fill="white"/>
<path d="M234.608 117.549L260.697 181.798L261.992 180.752L238.34 116.095L234.608 117.549Z" fill="#3D8137"/>
<path opacity="0.5" d="M234.608 117.549L260.697 181.798L261.992 180.752L238.34 116.095L234.608 117.549Z" fill="white"/>
<path d="M237.547 124.797L260.697 181.798L259.132 181.294L234.06 128.189L237.547 124.797Z" fill="#3D8137"/>
<path d="M250.671 163.373L255.017 161.68L255.73 163.631L251.563 165.253L250.671 163.373Z" fill="#3D8137"/>
<path d="M239.364 112.49L280.247 59.4107L278.669 58.7517L236.141 109.874L239.364 112.49Z" fill="#3D8137"/>
<path opacity="0.5" d="M239.364 112.49L280.247 59.4107L278.669 58.7517L236.141 109.874L239.364 112.49Z" fill="white"/>
<path d="M243.98 106.495L280.247 59.4106L280.65 61.0258L248.723 107.987L243.98 106.495Z" fill="#3D8137"/>
<path d="M269.871 76.8735L266.126 73.8306L267.408 72.293L271.007 75.2066L269.871 76.8735Z" fill="#3D8137"/>
<path d="M232.521 110.668L165.549 99.4917L165.826 101.191L232.013 114.732L232.521 110.668Z" fill="#3D8137"/>
<path opacity="0.5" d="M232.521 110.668L165.549 99.4917L165.826 101.191L232.013 114.732L232.521 110.668Z" fill="white"/>
<path d="M224.959 109.402L165.549 99.4917L166.711 98.387L223.71 104.531L224.959 109.402Z" fill="#3D8137"/>
<path d="M185.945 100.461L185.35 105.183L183.355 104.776L183.923 100.241L185.945 100.461Z" fill="#3D8137"/>
<path d="M234.912 117.336C237.44 117.336 239.489 115.331 239.489 112.858C239.489 110.386 237.44 108.381 234.912 108.381C232.384 108.381 230.335 110.386 230.335 112.858C230.335 115.331 232.384 117.336 234.912 117.336Z" fill="#3D8137"/>
<path d="M231.464 112.852C231.464 113.854 231.871 114.815 232.596 115.524C233.321 116.233 234.303 116.631 235.328 116.631C237.462 116.631 241.933 113.924 241.933 112.852C241.933 111.779 237.462 109.066 235.328 109.066C234.82 109.066 234.317 109.164 233.848 109.354C233.379 109.545 232.953 109.824 232.594 110.175C232.235 110.527 231.95 110.944 231.757 111.403C231.563 111.863 231.463 112.355 231.464 112.852Z" fill="#3D8137"/>
<path opacity="0.5" d="M231.464 112.852C231.464 113.854 231.871 114.815 232.596 115.524C233.321 116.233 234.303 116.631 235.328 116.631C237.462 116.631 241.933 113.924 241.933 112.852C241.933 111.779 237.462 109.066 235.328 109.066C234.82 109.066 234.317 109.164 233.848 109.354C233.379 109.545 232.953 109.824 232.594 110.175C232.235 110.527 231.95 110.944 231.757 111.403C231.563 111.863 231.463 112.355 231.464 112.852Z" fill="white"/>
<path d="M235.434 102.16C237.512 102.05 239.577 102.535 241.378 103.555C241.827 103.803 242.254 104.088 242.653 104.408L243.254 104.886C243.445 105.054 243.617 105.242 243.802 105.422C244.163 105.783 244.498 106.167 244.806 106.572C245.103 106.985 245.372 107.417 245.612 107.864C246.096 108.759 246.441 109.719 246.635 110.714C246.841 111.702 246.899 112.713 246.807 113.718C246.731 114.723 246.508 115.713 246.147 116.657C245.763 117.59 245.256 118.469 244.641 119.274C245.842 117.641 246.562 115.717 246.721 113.711C246.875 111.711 246.449 109.71 245.493 107.936C245.261 107.488 244.998 107.056 244.707 106.643C244.409 106.24 244.082 105.858 243.729 105.5C243.551 105.326 243.379 105.138 243.188 104.97L242.606 104.492C242.213 104.174 241.794 103.889 241.351 103.639C239.557 102.621 237.508 102.109 235.434 102.16Z" fill="#C7C7C7"/>
<path d="M229.271 121.418C228.435 120.809 227.686 120.092 227.046 119.287C226.41 118.473 225.903 117.572 225.54 116.612C224.796 114.686 224.631 112.592 225.064 110.578C225.283 109.574 225.657 108.609 226.174 107.716C226.922 106.363 227.964 105.187 229.225 104.27C230.487 103.353 231.939 102.716 233.479 102.405C231.449 102.877 229.594 103.893 228.122 105.338C227.395 106.062 226.779 106.884 226.293 107.78C225.795 108.666 225.437 109.62 225.229 110.61C224.779 112.597 224.921 114.669 225.639 116.58C226.373 118.488 227.629 120.162 229.271 121.418Z" fill="#C7C7C7"/>
<path d="M243.195 120.772C242.009 121.9 240.56 122.729 238.974 123.189C238.183 123.418 237.367 123.555 236.544 123.596C235.723 123.612 234.903 123.554 234.093 123.421C234.906 123.49 235.722 123.507 236.537 123.473C237.348 123.412 238.15 123.264 238.928 123.034C240.495 122.576 241.947 121.806 243.195 120.772Z" fill="#C7C7C7"/>
<path d="M223.255 120.327C221.826 118.063 221.07 115.456 221.07 112.796C221.07 110.136 221.826 107.529 223.255 105.266C224.683 103.002 226.727 101.172 229.158 99.9802C231.589 98.7882 234.311 98.2812 237.019 98.5159C234.322 98.3442 231.627 98.8795 229.212 100.066C226.812 101.269 224.797 103.095 223.387 105.345C221.96 107.584 221.198 110.168 221.188 112.807C221.176 115.449 221.89 118.046 223.255 120.327Z" fill="#C7C7C7"/>
<path d="M239.304 126.839C237.198 127.382 234.993 127.446 232.858 127.026C230.726 126.594 228.725 125.686 227.013 124.371C228.774 125.595 230.776 126.447 232.893 126.872C235.009 127.296 237.193 127.285 239.304 126.839Z" fill="#C7C7C7"/>
<path d="M241.18 99.4526C243.306 100.235 245.214 101.496 246.748 103.135C248.29 104.775 249.419 106.745 250.043 108.887C250.667 111.03 250.769 113.286 250.341 115.475C250.137 116.565 249.8 117.628 249.337 118.64C248.863 119.645 248.28 120.598 247.6 121.483C248.927 119.69 249.83 117.631 250.242 115.455C250.632 113.279 250.514 111.044 249.897 108.918C249.279 106.792 248.178 104.831 246.675 103.18C245.148 101.555 243.272 100.282 241.18 99.4526Z" fill="#C7C7C7"/>
<path d="M248.274 111.915C248.432 113.886 248.098 115.865 247.303 117.683C246.507 119.5 245.272 121.102 243.705 122.35C242.137 123.598 240.284 124.456 238.303 124.849C236.322 125.243 234.273 125.16 232.332 124.609C230.391 124.058 228.615 123.054 227.158 121.685C225.7 120.315 224.604 118.62 223.963 116.744C223.323 114.869 223.157 112.87 223.48 110.918C223.803 108.966 224.605 107.12 225.817 105.538C224.627 107.128 223.845 108.975 223.538 110.922C223.231 112.87 223.408 114.861 224.054 116.728C224.695 118.587 225.787 120.268 227.235 121.625C228.684 122.983 230.446 123.979 232.372 124.527C234.299 125.075 236.332 125.16 238.299 124.774C240.266 124.388 242.109 123.542 243.67 122.31C245.235 121.066 246.47 119.472 247.271 117.663C248.072 115.853 248.416 113.882 248.274 111.915Z" fill="#C7C7C7"/>
<path d="M229.12 102.567C229.83 102.132 230.575 101.752 231.345 101.43C232.129 101.134 232.941 100.918 233.769 100.784C235.434 100.493 237.141 100.544 238.784 100.933C240.427 101.322 241.97 102.041 243.313 103.045C244.669 104.029 245.795 105.284 246.616 106.727C245.753 105.326 244.613 104.106 243.264 103.139C241.915 102.172 240.382 101.476 238.756 101.094C237.133 100.701 235.446 100.633 233.796 100.893C232.143 101.156 230.556 101.724 229.12 102.567Z" fill="#C7C7C7"/>
<path d="M144.09 70.2708L150.417 267.283H131.818L138.146 70.2708H144.09Z" fill="#3D8137"/>
<path opacity="0.5" d="M144.09 70.2708L150.417 267.283H131.818L138.146 70.2708H144.09Z" fill="white"/>
<path d="M144.618 86.7902L137.98 75.5296L138.146 70.2708H144.09L144.618 86.7902Z" fill="#3D8137"/>
<path d="M148.35 203.15H133.885L134.116 195.895H148.119L148.35 203.15Z" fill="#3D8137"/>
<path d="M148.013 192.452H134.222L134.341 188.827H147.894L148.013 192.452Z" fill="#3D8137"/>
<path opacity="0.5" d="M141.296 267.342V70.2708H144.09L150.417 267.283L141.296 267.342Z" fill="white"/>
<path d="M123.846 67.8482L125.438 73.6303H146.21V62.0725H125.438L124.672 64.8441L123.846 67.8482Z" fill="#3D8137"/>
<path opacity="0.3" d="M123.846 67.8482L125.438 73.6303H146.21V62.0725H125.438L124.672 64.8441L123.846 67.8482Z" fill="white"/>
<path opacity="0.5" d="M123.846 67.8479H146.21V64.8438H124.672L123.846 67.8479Z" fill="white"/>
<path d="M153.02 70.1674L242.475 52.4269L241.418 50.5728L151.989 65.1864L153.02 70.1674Z" fill="#3D8137"/>
<path opacity="0.5" d="M153.02 70.1674L242.475 52.4269L241.418 50.5728L151.989 65.1864L153.02 70.1674Z" fill="white"/>
<path d="M163.118 68.1648L242.475 52.427L241.457 54.2553L166.724 73.275L163.118 68.1648Z" fill="#3D8137"/>
<path d="M216.24 60.6703L215.038 54.8817L217.733 54.4424L218.889 59.9984L216.24 60.6703Z" fill="#3D8137"/>
<path d="M147.537 63.0996L87.916 0.12915L86.7007 1.94455L143.403 66.5107L147.537 63.0996Z" fill="#3D8137"/>
<path opacity="0.5" d="M147.537 63.0996L87.916 0.12915L86.7007 1.94455L143.403 66.5107L147.537 63.0996Z" fill="white"/>
<path d="M140.807 55.9866L87.916 0.12921L90.1022 0L143.819 50.4306L140.807 55.9866Z" fill="#3D8137"/>
<path d="M108.233 17.0234L103.431 20.9837L101.72 19.0391L106.33 15.2339L108.233 17.0234Z" fill="#3D8137"/>
<path d="M143.601 71.1816L113.767 151.899L116.039 151.938L148.766 72.7515L143.601 71.1816Z" fill="#3D8137"/>
<path opacity="0.5" d="M143.601 71.1816L113.767 151.899L116.039 151.938L148.766 72.7515L143.601 71.1816Z" fill="white"/>
<path d="M140.233 80.291L113.767 151.899L112.592 150.2L133.615 80.7368L140.233 80.291Z" fill="#3D8137"/>
<path d="M119.692 126.761L125.696 128.577L124.705 130.967L118.939 129.216L119.692 126.761Z" fill="#3D8137"/>
<path d="M146.936 73.6302C150.201 73.6302 152.847 71.0414 152.847 67.8481C152.847 64.6547 150.201 62.0659 146.936 62.0659C143.671 62.0659 141.025 64.6547 141.025 67.8481C141.025 71.0414 143.671 73.6302 146.936 73.6302Z" fill="#3D8137"/>
<path d="M142.478 67.8481C142.477 68.4898 142.606 69.1253 142.856 69.7182C143.107 70.3112 143.475 70.8499 143.939 71.3036C144.402 71.7573 144.953 72.1171 145.559 72.3622C146.166 72.6074 146.815 72.7331 147.471 72.7323C150.225 72.7323 155.991 69.2436 155.991 67.8481C155.991 66.556 150.225 62.9705 147.471 62.9705C146.816 62.9696 146.167 63.0952 145.561 63.3399C144.955 63.5846 144.405 63.9438 143.941 64.3968C143.477 64.8498 143.109 65.3878 142.858 65.98C142.607 66.5722 142.478 67.207 142.478 67.8481Z" fill="#3D8137"/>
<path opacity="0.5" d="M142.478 67.8481C142.477 68.4898 142.606 69.1253 142.856 69.7182C143.107 70.3112 143.475 70.8499 143.939 71.3036C144.402 71.7573 144.953 72.1171 145.559 72.3622C146.166 72.6074 146.815 72.7331 147.471 72.7323C150.225 72.7323 155.991 69.2436 155.991 67.8481C155.991 66.556 150.225 62.9705 147.471 62.9705C146.816 62.9696 146.167 63.0952 145.561 63.3399C144.955 63.5846 144.405 63.9438 143.941 64.3968C143.477 64.8498 143.109 65.3878 142.858 65.98C142.607 66.5722 142.478 67.207 142.478 67.8481Z" fill="white"/>
<path d="M139.044 58.1769C140.893 56.6692 143.152 55.7218 145.543 55.4505C146.136 55.3742 146.735 55.3461 147.333 55.3666L148.231 55.4118C148.528 55.4118 148.826 55.4893 149.123 55.5281C149.714 55.6189 150.299 55.7484 150.873 55.9157C151.444 56.0958 152.002 56.3116 152.544 56.5617C153.629 57.0571 154.631 57.7106 155.516 58.4999C156.416 59.2742 157.193 60.1757 157.821 61.1745C158.462 62.1757 158.954 63.2613 159.281 64.3983C159.589 65.5279 159.745 66.6921 159.743 67.8611C159.701 65.5236 159.004 63.2422 157.729 61.265C156.437 59.3018 154.606 57.7345 152.445 56.7426C151.912 56.4915 151.363 56.2757 150.8 56.0966C150.234 55.9234 149.656 55.7917 149.07 55.7025C148.779 55.6573 148.489 55.5991 148.192 55.5733L147.307 55.5281C146.713 55.501 146.119 55.5227 145.53 55.5927C143.165 55.8509 140.92 56.7454 139.044 58.1769Z" fill="#C7C7C7"/>
<path d="M147.062 80.2845C145.851 80.2846 144.645 80.1282 143.475 79.8193C141.721 79.3182 140.097 78.4559 138.712 77.2904C137.327 76.1249 136.213 74.683 135.444 73.0616C134.932 71.9808 134.589 70.831 134.427 69.6505C134.344 69.0616 134.298 68.4683 134.288 67.8739C134.292 67.2816 134.337 66.6903 134.42 66.1037C134.767 63.7396 135.811 61.5258 137.425 59.7336C135.87 61.5554 134.865 63.7662 134.526 66.1166C134.363 67.2837 134.376 68.4679 134.565 69.6311C134.733 70.7969 135.078 71.9315 135.589 72.997C136.59 75.145 138.193 76.9709 140.213 78.2623C142.258 79.5476 144.631 80.248 147.062 80.2845Z" fill="#C7C7C7"/>
<path d="M159.519 70.2126C159.206 72.0656 158.448 73.8194 157.306 75.3294C156.727 76.0797 156.062 76.7625 155.325 77.3644C154.597 77.9704 153.794 78.4828 152.934 78.8891C153.76 78.4311 154.537 77.8921 155.252 77.2804C155.969 76.6749 156.612 75.9898 157.167 75.2389C157.739 74.5 158.225 73.7003 158.614 72.855C159.002 72.0049 159.305 71.1199 159.519 70.2126Z" fill="#C7C7C7"/>
<path d="M140.662 83.3662C137.727 82.2276 135.171 80.3173 133.277 77.8466C131.383 75.3759 130.224 72.441 129.929 69.3663C129.647 66.2887 130.244 63.1948 131.654 60.4297C133.064 57.6645 135.231 55.3368 137.914 53.7061C135.284 55.3825 133.159 57.7154 131.759 60.4637C130.384 63.2206 129.808 66.2928 130.092 69.3473C130.376 72.4017 131.51 75.3218 133.37 77.7908C135.244 80.2564 137.763 82.1825 140.662 83.3662Z" fill="#C7C7C7"/>
<path d="M160.219 78.4819C158.651 80.4292 156.641 81.9928 154.348 83.049C152.055 84.1053 149.543 84.6252 147.009 84.5677C149.525 84.5204 152.002 83.9538 154.279 82.9051C156.555 81.8563 158.579 80.349 160.219 78.4819Z" fill="#C7C7C7"/>
<path d="M142.438 51.7355C144.976 51.019 147.65 50.895 150.245 51.3737C152.844 51.8597 155.293 52.9229 157.405 54.4812C159.503 56.0546 161.203 58.0796 162.372 60.399C162.955 61.5525 163.398 62.7689 163.693 64.0233C163.969 65.2802 164.109 66.5623 164.109 67.8479C164.07 65.2768 163.443 62.7468 162.273 60.4442C161.091 58.1613 159.393 56.1726 157.306 54.6298C156.269 53.8571 155.143 53.2066 153.951 52.6916C152.759 52.1631 151.509 51.7707 150.226 51.5223C147.646 51.0275 144.986 51.1003 142.438 51.7355Z" fill="#C7C7C7"/>
<path d="M157.927 58.4932C159.49 60.208 160.601 62.2706 161.163 64.5014C161.866 67.3056 161.679 70.2527 160.628 72.9504C159.576 75.6482 157.71 77.9687 155.276 79.6032C152.843 81.2376 149.959 82.1084 147.007 82.0997C144.055 82.091 141.176 81.2031 138.753 79.5544C136.822 78.2444 135.246 76.4937 134.162 74.454C133.078 72.4142 132.518 70.1468 132.531 67.848C132.538 70.1357 133.11 72.3881 134.2 74.4123C135.29 76.4366 136.864 78.1726 138.789 79.472C140.715 80.7713 142.933 81.5953 145.254 81.8736C147.576 82.1518 149.932 81.876 152.12 81.0697C154.309 80.2634 156.266 78.9507 157.823 77.2436C159.38 75.5366 160.492 73.4861 161.062 71.2674C161.633 69.0487 161.646 66.7279 161.1 64.5033C160.554 62.2787 159.465 60.2166 157.927 58.4932Z" fill="#C7C7C7"/>
<path d="M133.456 62.8543C133.812 61.9632 134.236 61.0994 134.724 60.2701C135.239 59.4571 135.836 58.6974 136.507 58.0025C137.856 56.6105 139.478 55.4986 141.276 54.7335C143.082 53.9799 145.026 53.5952 146.989 53.6029C148.947 53.5981 150.884 53.9943 152.676 54.7658C150.868 54.0581 148.937 53.6983 146.989 53.7063C143.066 53.758 139.325 55.3311 136.587 58.08C135.914 58.7627 135.312 59.5094 134.79 60.3089C134.285 61.1257 133.839 61.9763 133.456 62.8543Z" fill="#C7C7C7"/>
</svg>
